
        <svg xmlns="http://www.w3.org/2000/svg" xmlns:xlink="http://www.w3.org/1999/xlink" version="1.1" width="3096.8288549987897" height="724.2798353909465" viewBox="0 0 3096.8288549987897 724.2798353909465">
			
			<g transform="scale(4.841442749939481) translate(10, 10)">
				<defs id="SvgjsDefs8420"/><g id="SvgjsG8421" featureKey="rootContainer" transform="matrix(1.35,0,0,1.35,0,0)" fill="#fff"><rect xmlns="http://www.w3.org/2000/svg" width="459" height="96" rx="10" ry="10"/></g><g id="SvgjsG8422" featureKey="nameLeftFeature-0" transform="matrix(2.622205641233153,0,0,2.622205641233153,94.77630414109915,30.58418008228597)" fill="#000000"><path d="M9.873 8.154 l-5.5176 0 l0 3.8477 l4.7852 0 l0 2.0703 l-4.7852 0 l0 5.9277 l-2.3633 0 l0 -13.926 l7.8809 0 l0 2.0801 z M20.039103125 20 l-3.6133 -6.2109 l-1.5039 0 l0 6.2109 l-2.334 0 l0 -13.926 l4.834 0 c3.0176 0 4.3457 1.8066 4.3457 4.043 c0 1.9434 -1.1523 3.252 -2.998 3.584 l4.0137 6.2988 l-2.7441 0 z M14.921903125 8.047 l0 4.0137 l2.1582 0 c1.709 0 2.4414 -0.80078 2.4414 -1.9922 c0 -1.1816 -0.73242 -2.0215 -2.4414 -2.0215 l-2.1582 0 z M34.492374999999996 20 l-1.1035 -3.0957 l-6.084 0 l-1.0938 3.0957 l-2.4121 0 l5.127 -13.926 l2.8418 0 l5.127 13.926 l-2.4023 0 z M28.017575 14.9023 l4.668 0 l-2.334 -6.582 z M45.40035 20.18555 c-4.0039 0 -7.0313 -2.7344 -7.0313 -7.1582 c0 -4.4043 3.0273 -7.1484 7.0313 -7.1484 c2.9297 0 5.332 1.4844 6.377 3.9746 l-2.1777 0.83008 c-0.72266 -1.6699 -2.3047 -2.627 -4.1992 -2.627 c-2.6367 0 -4.6973 1.8359 -4.6973 4.9707 c0 3.1543 2.0605 4.9805 4.6973 4.9805 c1.8945 0 3.4766 -0.94727 4.1992 -2.6172 l2.1777 0.83008 c-1.0449 2.4902 -3.4473 3.9648 -6.377 3.9648 z M62.15816875 6.074 l0 2.0801 l-3.4375 0 l0 11.846 l-2.3242 0 l0 -11.846 l-3.4473 0 l0 -2.0801 l9.209 0 z M73.759953125 20 l-1.1035 -3.0957 l-6.084 0 l-1.0938 3.0957 l-2.4121 0 l5.127 -13.926 l2.8418 0 l5.127 13.926 l-2.4023 0 z M67.285153125 14.9023 l4.668 0 l-2.334 -6.582 z M80.937528125 17.9102 l4.5996 0 l0 2.0898 l-6.9336 0 l0 -13.926 l2.334 0 l0 11.836 z"/></g><g id="SvgjsG8423" featureKey="inlineSymbolFeature-0" transform="matrix(0.7158228506117018,0,0,0.7158228506117018,335.4210646043508,29.344990260797022)" fill="#000000"><path xmlns="http://www.w3.org/2000/svg" d="M84.04,67.153C84.04,67.153,84.04,67.153,84.04,67.153c0-0.001,0-0.001-0.001-0.001L52.165,11.944  c-0.447-0.773-1.272-1.25-2.165-1.25s-1.718,0.477-2.165,1.25L15.961,67.152c0,0,0,0-0.001,0.001s0,0.001,0,0.001L5.335,85.556  c-0.447,0.773-0.447,1.727,0,2.5s1.272,1.25,2.165,1.25h85c0.006,0,0.013,0,0.02,0c1.381,0,2.5-1.119,2.5-2.5  c0-0.562-0.185-1.08-0.498-1.497L84.04,67.153z M77.545,65.903h-12.59L71.25,55L77.545,65.903z M66.92,47.5H54.33l6.295-10.903  L66.92,47.5z M50,45l-6.295-10.903h12.59L50,45z M50,18.194l6.295,10.903h-12.59L50,18.194z M39.375,36.597L45.67,47.5H33.08  L39.375,36.597z M28.75,55l6.295,10.903h-12.59L28.75,55z M11.83,84.306l6.295-10.903l6.295,10.903H11.83z M22.455,70.903h12.59  L28.75,81.806L22.455,70.903z M33.08,84.306l6.295-10.903l6.295,10.903H33.08z M41.54,67.154  C41.54,67.153,41.54,67.153,41.54,67.154c-0.001-0.001-0.001-0.001-0.001-0.002L33.08,52.5h33.84l-8.459,14.652c0,0,0,0-0.001,0.001  s0,0.001,0,0.001L50,81.806L41.54,67.154z M54.33,84.306l6.295-10.903l6.295,10.903H54.33z M64.955,70.903h12.59L71.25,81.806  L64.955,70.903z M75.58,84.306l6.295-10.903l6.295,10.903H75.58z"/></g><g id="SvgjsG8424" featureKey="nameRightFeature-0" transform="matrix(2.229840852172768,0,0,2.229840852172768,411.8507957391362,36.21958285307887)" fill="#000000"><path d="M5 20 l0 -13.7 l1.06 0 l0 12.72 l7.06 0 l0 0.98 l-8.12 0 z M22.82 15.379999999999999 l-3.02 -7.7 l-3.04 7.7 l6.06 0 z M24.64 20 l-1.42 -3.62 l-6.86 0 l-1.42 3.62 l-1.08 0 l5.42 -13.7 l1.06 0 l5.44 13.7 l-1.14 0 z M26.98 20 l0 -13.7 l4.72 0 c2.6 0 4.04 1.58 4.04 3.54 c0 1.2 -0.68 2.42 -1.84 3 c1.8 0.3 2.78 1.66 2.78 3.22 c0 2.24 -1.64 3.94 -3.96 3.94 l-5.74 0 z M31.76 7.279999999999999 l-3.72 0 l0 5.24 l3.64 0 c2.04 0 3 -1.2 3 -2.62 s-1 -2.62 -2.92 -2.62 z M32.66 13.5 l-4.62 0 l0 5.52 l4.54 0 c2.1 0 3.04 -1.34 3.04 -2.88 c0 -1.42 -0.98 -2.64 -2.96 -2.64 z M43.04 20.2 c-3.2 0 -5.16 -1.42 -5.5 -4.3 l1.06 0 c0.26 2.16 1.86 3.34 4.44 3.32 c2.56 0 3.92 -1.12 3.92 -2.94 c0 -2.04 -2.04 -2.38 -4.16 -2.78 c-2.28 -0.42 -4.66 -0.9 -4.66 -3.68 c0 -2.18 1.8 -3.64 4.54 -3.64 c2.92 0 4.78 1.54 4.94 3.94 l-1.04 0 c-0.16 -1.54 -1.4 -2.96 -3.96 -2.96 c-2.2 0 -3.46 1.12 -3.46 2.68 c0 1.96 1.94 2.3 4 2.68 c2.36 0.44 4.86 0.9 4.86 3.8 c0 2.14 -1.56 3.88 -4.98 3.88 z"/></g>
			</g>
		</svg>
	